<svg width="800" height="500" viewBox="0 0 800 500" fill="none" xmlns="http://www.w3.org/2000/svg">
  <rect width="800" height="500" fill="#F6F3ED"/>
  <!-- Subtle grain texture -->
  <filter id="grain"><feTurbulence type="fractalNoise" baseFrequency="0.85" numOctaves="4" stitchTiles="stitch"/><feColorMatrix type="saturate" values="0"/><feBlend in="SourceGraphic" mode="multiply" result="blend"/><feComposite in="blend" in2="SourceGraphic" operator="atop"/></filter>
  <rect width="800" height="500" filter="url(#grain)" opacity="0.04"/>
  <!-- Surface panel -->
  <rect x="60" y="60" width="480" height="340" fill="#E8DFC9" rx="2"/>
  <!-- Nav bar -->
  <rect x="60" y="60" width="480" height="44" fill="#E0D6BE" rx="2"/>
  <rect x="80" y="76" width="32" height="12" fill="#3F5A4F" opacity="0.6" rx="1"/>
  <rect x="360" y="78" width="40" height="8" fill="#3F5A4F" opacity="0.2" rx="1"/>
  <rect x="410" y="78" width="40" height="8" fill="#3F5A4F" opacity="0.2" rx="1"/>
  <rect x="460" y="74" width="60" height="16" fill="#3F5A4F" opacity="0.55" rx="1"/>
  <!-- Hero section -->
  <rect x="80" y="124" width="200" height="7" fill="#1F3D33" opacity="0.55" rx="1"/>
  <rect x="80" y="140" width="270" height="5" fill="#1F3D33" opacity="0.3" rx="1"/>
  <rect x="80" y="154" width="230" height="5" fill="#1F3D33" opacity="0.3" rx="1"/>
  <rect x="80" y="175" width="100" height="28" fill="#3F5A4F" opacity="0.8" rx="2"/>
  <rect x="192" y="175" width="80" height="28" fill="none" stroke="#3F5A4F" stroke-width="1" opacity="0.4" rx="2"/>
  <!-- Service cards row -->
  <rect x="80" y="224" width="130" height="80" fill="#F6F3ED" opacity="0.9" rx="2"/>
  <rect x="220" y="224" width="130" height="80" fill="#F6F3ED" opacity="0.9" rx="2"/>
  <rect x="360" y="224" width="130" height="80" fill="#F6F3ED" opacity="0.9" rx="2"/>
  <rect x="92" y="238" width="48" height="5" fill="#3F5A4F" opacity="0.5" rx="1"/>
  <rect x="92" y="252" width="90" height="4" fill="#1A1A18" opacity="0.2" rx="1"/>
  <rect x="92" y="262" width="70" height="4" fill="#1A1A18" opacity="0.2" rx="1"/>
  <rect x="232" y="238" width="48" height="5" fill="#3F5A4F" opacity="0.5" rx="1"/>
  <rect x="232" y="252" width="90" height="4" fill="#1A1A18" opacity="0.2" rx="1"/>
  <rect x="232" y="262" width="70" height="4" fill="#1A1A18" opacity="0.2" rx="1"/>
  <rect x="372" y="238" width="48" height="5" fill="#3F5A4F" opacity="0.5" rx="1"/>
  <rect x="372" y="252" width="90" height="4" fill="#1A1A18" opacity="0.2" rx="1"/>
  <rect x="372" y="262" width="70" height="4" fill="#1A1A18" opacity="0.2" rx="1"/>
  <!-- Waterline subtle -->
  <line x1="80" y1="320" x2="520" y2="320" stroke="#3F5A4F" stroke-width="0.5" opacity="0.15"/>
  <line x1="80" y1="335" x2="420" y2="335" stroke="#3F5A4F" stroke-width="0.5" opacity="0.1"/>
  <!-- Footer strip -->
  <rect x="60" y="370" width="480" height="30" fill="#3F5A4F" opacity="0.12" rx="2"/>
  <rect x="80" y="379" width="60" height="5" fill="#3F5A4F" opacity="0.4" rx="1"/>
  <rect x="420" y="379" width="40" height="5" fill="#3F5A4F" opacity="0.3" rx="1"/>
  <!-- Right panel — info block -->
  <rect x="580" y="100" width="160" height="220" fill="#3F5A4F" opacity="0.07" rx="2"/>
  <rect x="596" y="120" width="40" height="4" fill="#3F5A4F" opacity="0.5" rx="1"/>
  <line x1="596" y1="132" x2="724" y2="132" stroke="#3F5A4F" stroke-width="0.5" opacity="0.3"/>
  <rect x="596" y="144" width="80" height="5" fill="#1A1A18" opacity="0.35" rx="1"/>
  <rect x="596" y="158" width="120" height="4" fill="#1A1A18" opacity="0.18" rx="1"/>
  <rect x="596" y="170" width="100" height="4" fill="#1A1A18" opacity="0.18" rx="1"/>
  <rect x="596" y="182" width="110" height="4" fill="#1A1A18" opacity="0.18" rx="1"/>
  <!-- Trust markers -->
  <circle cx="596" cy="216" r="3" fill="#3F5A4F" opacity="0.4"/>
  <rect x="606" y="213" width="80" height="4" fill="#1A1A18" opacity="0.2" rx="1"/>
  <circle cx="596" cy="232" r="3" fill="#3F5A4F" opacity="0.4"/>
  <rect x="606" y="229" width="60" height="4" fill="#1A1A18" opacity="0.2" rx="1"/>
  <circle cx="596" cy="248" r="3" fill="#3F5A4F" opacity="0.4"/>
  <rect x="606" y="245" width="70" height="4" fill="#1A1A18" opacity="0.2" rx="1"/>
  <!-- Bottom metadata -->
  <rect x="60" y="440" width="140" height="1" fill="#3F5A4F" opacity="0.2"/>
  <rect x="60" y="456" width="80" height="5" fill="#3F5A4F" opacity="0.25" rx="1"/>
  <rect x="152" y="456" width="40" height="5" fill="#3F5A4F" opacity="0.12" rx="1"/>
  <rect x="620" y="456" width="120" height="5" fill="#3F5A4F" opacity="0.15" rx="1"/>
</svg>
